<svg width="327" height="162" viewBox="0 0 327 162" fill="none" xmlns="http://www.w3.org/2000/svg">
<path fill-rule="evenodd" clip-rule="evenodd" d="M28 0C13.6406 0 2 11.6406 2 26V119C2 133.359 13.6406 145 28 145H40.6031L39.5621 159.06L60.2233 145H301C315.359 145 327 133.359 327 119V26C327 11.6406 315.359 0 301 0H28Z" fill="#E3ECF4"/>
<path d="M154.797 57.381C160.924 57.381 165.838 59.201 169.539 62.841C173.3 66.481 175.181 71.9713 175.181 79.312V107.522H157.891V82.133C157.891 75.399 155.191 72.032 149.792 72.032C146.819 72.032 144.423 73.0027 142.603 74.944C140.843 76.8853 139.964 79.7973 139.964 83.68V107.522H122.674V32L139.964 24V62.75C141.844 60.9907 144.059 59.656 146.607 58.746C149.155 57.836 151.885 57.381 154.797 57.381Z" fill="#0E1531"/>
<path d="M275.433 95.146C277.799 95.146 279.831 94.8123 281.53 94.145C283.289 93.4777 285.048 92.3857 286.808 90.869L295.817 100.333C291.145 105.672 284.169 108.341 274.887 108.341C269.123 108.341 264.058 107.249 259.69 105.065C255.322 102.881 251.924 99.8477 249.498 95.965C247.132 92.0823 245.949 87.684 245.949 82.77C245.949 77.9167 247.132 73.579 249.498 69.757C251.864 65.8743 255.109 62.841 259.235 60.657C263.421 58.473 268.092 57.381 273.249 57.381C278.041 57.381 282.409 58.382 286.353 60.384C290.357 62.3253 293.542 65.207 295.908 69.029C298.274 72.7903 299.457 77.2797 299.457 82.497L264.24 89.231C266.12 93.1743 269.851 95.146 275.433 95.146ZM273.34 69.666C270.367 69.666 267.94 70.6063 266.06 72.487C264.179 74.307 263.117 76.946 262.875 80.404L282.895 76.491C282.288 74.4283 281.135 72.7903 279.437 71.577C277.738 70.303 275.706 69.666 273.34 69.666Z" fill="#0E1531"/>
<g filter="url(#filter0_d_5_100)">
<path fill-rule="evenodd" clip-rule="evenodd" d="M50.1873 39.4335V69.6775C50.1873 79.7852 58.3813 87.9792 68.489 87.9792C78.5967 87.9792 86.7907 79.7852 86.7907 69.6775V39.4335H106.978V69.6775C106.978 90.9344 89.7459 108.166 68.489 108.166C47.2321 108.166 30 90.9344 30 69.6775V39.4335H50.1873Z" fill="url(#paint0_radial_5_100)"/>
<path fill-rule="evenodd" clip-rule="evenodd" d="M56.6003 38.3646V68.6086C56.6003 78.7164 64.7943 86.9103 74.902 86.9103C85.0097 86.9103 93.2037 78.7164 93.2037 68.6086V38.3646H113.391V68.6086C113.391 89.8655 96.1589 107.098 74.902 107.098C53.6451 107.098 36.413 89.8655 36.413 68.6086V38.3646H56.6003Z" fill="url(#paint1_radial_5_100)"/>
<path fill-rule="evenodd" clip-rule="evenodd" d="M52.8594 37V67.244C52.8594 77.3517 61.0534 85.5457 71.1611 85.5457C81.2688 85.5457 89.4628 77.3517 89.4628 67.244V37H109.65V67.244C109.65 88.5009 92.418 105.733 71.1611 105.733C49.9042 105.733 32.6721 88.5009 32.6721 67.244V37H52.8594Z" fill="url(#paint2_radial_5_100)"/>
<path opacity="0.1" d="M107.986 79.2166C110.057 72.7093 109.613 46.0886 109.613 39.1377H89.2039C89.2039 47.0499 101.536 67.1633 95.1196 85.2801C90.0913 99.4778 73.7713 105.054 67.3159 107.464C72.1963 107.982 76.2875 107.546 80.3303 106.503C86.9955 104.783 93.0962 101.066 96.8943 97.5552C105.176 89.9004 107.484 80.7961 107.986 79.2166Z" fill="#0022A7"/>
</g>
<g filter="url(#filter1_d_5_100)">
<path fill-rule="evenodd" clip-rule="evenodd" d="M225.665 60.6813V81.5758C225.665 88.5589 220.004 94.2198 213.021 94.2198C206.038 94.2198 200.377 88.5589 200.377 81.5758V60.6813H186.431V81.5758C186.431 96.2615 198.336 108.167 213.021 108.167C227.707 108.167 239.612 96.2615 239.612 81.5758V60.6813H225.665Z" fill="url(#paint3_radial_5_100)"/>
<path fill-rule="evenodd" clip-rule="evenodd" d="M221.235 59.9429V80.8374C221.235 87.8205 215.574 93.4814 208.591 93.4814C201.608 93.4814 195.947 87.8205 195.947 80.8374V59.9429H182V80.8374C182 95.5231 193.905 107.428 208.591 107.428C223.276 107.428 235.181 95.5231 235.181 80.8374V59.9429H221.235Z" fill="url(#paint4_radial_5_100)"/>
<path fill-rule="evenodd" clip-rule="evenodd" d="M223.819 59V79.8945C223.819 86.8776 218.158 92.5386 211.175 92.5386C204.192 92.5386 198.531 86.8776 198.531 79.8945V59H184.584V79.8945C184.584 94.5802 196.49 106.485 211.175 106.485C225.861 106.485 237.766 94.5802 237.766 79.8945V59H223.819Z" fill="url(#paint5_radial_5_100)"/>
<path opacity="0.1" d="M185.734 88.166C184.304 83.6704 184.61 65.2791 184.61 60.4769H198.71C198.71 65.9432 190.19 79.8389 194.623 92.3552C198.097 102.164 209.372 106.016 213.832 107.681C210.46 108.039 207.634 107.738 204.841 107.017C200.236 105.829 196.021 103.261 193.397 100.836C187.675 95.5472 186.081 89.2573 185.734 88.166Z" fill="#0022A7"/>
</g>
<path d="M172.596 45V35.2H176.586C177.631 35.2 178.546 35.41 179.33 35.83C180.123 36.2407 180.739 36.8147 181.178 37.552C181.617 38.2893 181.836 39.1387 181.836 40.1C181.836 41.0613 181.617 41.9107 181.178 42.648C180.739 43.3853 180.123 43.964 179.33 44.384C178.546 44.7947 177.631 45 176.586 45H172.596ZM173.632 44.104H176.53C177.398 44.104 178.149 43.936 178.784 43.6C179.428 43.2547 179.927 42.7833 180.282 42.186C180.637 41.5793 180.814 40.884 180.814 40.1C180.814 39.3067 180.637 38.6113 180.282 38.014C179.927 37.4167 179.428 36.95 178.784 36.614C178.149 36.2687 177.398 36.096 176.53 36.096H173.632V44.104ZM187.074 45.07C186.309 45.07 185.637 44.9113 185.058 44.594C184.48 44.2673 184.027 43.824 183.7 43.264C183.374 42.6947 183.21 42.046 183.21 41.318C183.21 40.59 183.364 39.946 183.672 39.386C183.99 38.826 184.419 38.3873 184.96 38.07C185.511 37.7433 186.127 37.58 186.808 37.58C187.499 37.58 188.11 37.7387 188.642 38.056C189.184 38.364 189.608 38.8027 189.916 39.372C190.224 39.932 190.378 40.5807 190.378 41.318C190.378 41.3647 190.374 41.416 190.364 41.472C190.364 41.5187 190.364 41.57 190.364 41.626H183.966V40.884H189.832L189.44 41.178C189.44 40.646 189.324 40.1747 189.09 39.764C188.866 39.344 188.558 39.0173 188.166 38.784C187.774 38.5507 187.322 38.434 186.808 38.434C186.304 38.434 185.852 38.5507 185.45 38.784C185.049 39.0173 184.736 39.344 184.512 39.764C184.288 40.184 184.176 40.6647 184.176 41.206V41.36C184.176 41.92 184.298 42.4147 184.54 42.844C184.792 43.264 185.138 43.5953 185.576 43.838C186.024 44.0713 186.533 44.188 187.102 44.188C187.55 44.188 187.966 44.1087 188.348 43.95C188.74 43.7913 189.076 43.5487 189.356 43.222L189.916 43.866C189.59 44.258 189.179 44.5567 188.684 44.762C188.199 44.9673 187.662 45.07 187.074 45.07ZM194.155 45L190.893 37.65H191.929L194.925 44.468H194.435L197.473 37.65H198.453L195.177 45H194.155ZM202.77 45.07C202.004 45.07 201.332 44.9113 200.754 44.594C200.175 44.2673 199.722 43.824 199.396 43.264C199.069 42.6947 198.906 42.046 198.906 41.318C198.906 40.59 199.06 39.946 199.368 39.386C199.685 38.826 200.114 38.3873 200.656 38.07C201.206 37.7433 201.822 37.58 202.504 37.58C203.194 37.58 203.806 37.7387 204.338 38.056C204.879 38.364 205.304 38.8027 205.612 39.372C205.92 39.932 206.074 40.5807 206.074 41.318C206.074 41.3647 206.069 41.416 206.06 41.472C206.06 41.5187 206.06 41.57 206.06 41.626H199.662V40.884H205.528L205.136 41.178C205.136 40.646 205.019 40.1747 204.786 39.764C204.562 39.344 204.254 39.0173 203.862 38.784C203.47 38.5507 203.017 38.434 202.504 38.434C202 38.434 201.547 38.5507 201.146 38.784C200.744 39.0173 200.432 39.344 200.208 39.764C199.984 40.184 199.872 40.6647 199.872 41.206V41.36C199.872 41.92 199.993 42.4147 200.236 42.844C200.488 43.264 200.833 43.5953 201.272 43.838C201.72 44.0713 202.228 44.188 202.798 44.188C203.246 44.188 203.661 44.1087 204.044 43.95C204.436 43.7913 204.772 43.5487 205.052 43.222L205.612 43.866C205.285 44.258 204.874 44.5567 204.38 44.762C203.894 44.9673 203.358 45.07 202.77 45.07ZM208.097 45V34.612H209.091V45H208.097ZM214.853 45.07C214.143 45.07 213.504 44.9113 212.935 44.594C212.375 44.2673 211.931 43.824 211.605 43.264C211.278 42.6947 211.115 42.046 211.115 41.318C211.115 40.5807 211.278 39.932 211.605 39.372C211.931 38.812 212.375 38.3733 212.935 38.056C213.495 37.7387 214.134 37.58 214.853 37.58C215.581 37.58 216.225 37.7387 216.785 38.056C217.354 38.3733 217.797 38.812 218.115 39.372C218.441 39.932 218.605 40.5807 218.605 41.318C218.605 42.046 218.441 42.6947 218.115 43.264C217.797 43.824 217.354 44.2673 216.785 44.594C216.215 44.9113 215.571 45.07 214.853 45.07ZM214.853 44.188C215.385 44.188 215.856 44.0713 216.267 43.838C216.677 43.5953 216.999 43.2593 217.233 42.83C217.475 42.3913 217.597 41.8873 217.597 41.318C217.597 40.7393 217.475 40.2353 217.233 39.806C216.999 39.3767 216.677 39.0453 216.267 38.812C215.856 38.5693 215.389 38.448 214.867 38.448C214.344 38.448 213.877 38.5693 213.467 38.812C213.056 39.0453 212.729 39.3767 212.487 39.806C212.244 40.2353 212.123 40.7393 212.123 41.318C212.123 41.8873 212.244 42.3913 212.487 42.83C212.729 43.2593 213.056 43.5953 213.467 43.838C213.877 44.0713 214.339 44.188 214.853 44.188ZM224.428 45.07C223.793 45.07 223.219 44.9253 222.706 44.636C222.193 44.3373 221.782 43.9127 221.474 43.362C221.175 42.802 221.026 42.1207 221.026 41.318C221.026 40.5153 221.175 39.8387 221.474 39.288C221.773 38.728 222.179 38.3033 222.692 38.014C223.205 37.7247 223.784 37.58 224.428 37.58C225.128 37.58 225.753 37.7387 226.304 38.056C226.864 38.364 227.303 38.8027 227.62 39.372C227.937 39.932 228.096 40.5807 228.096 41.318C228.096 42.0647 227.937 42.718 227.62 43.278C227.303 43.838 226.864 44.2767 226.304 44.594C225.753 44.9113 225.128 45.07 224.428 45.07ZM220.634 47.716V37.65H221.586V39.862L221.488 41.332L221.628 42.816V47.716H220.634ZM224.358 44.188C224.881 44.188 225.347 44.0713 225.758 43.838C226.169 43.5953 226.495 43.2593 226.738 42.83C226.981 42.3913 227.102 41.8873 227.102 41.318C227.102 40.7487 226.981 40.2493 226.738 39.82C226.495 39.3907 226.169 39.0547 225.758 38.812C225.347 38.5693 224.881 38.448 224.358 38.448C223.835 38.448 223.364 38.5693 222.944 38.812C222.533 39.0547 222.207 39.3907 221.964 39.82C221.731 40.2493 221.614 40.7487 221.614 41.318C221.614 41.8873 221.731 42.3913 221.964 42.83C222.207 43.2593 222.533 43.5953 222.944 43.838C223.364 44.0713 223.835 44.188 224.358 44.188ZM237.58 45.07C236.936 45.07 236.358 44.9253 235.844 44.636C235.331 44.3373 234.925 43.908 234.626 43.348C234.328 42.788 234.178 42.1113 234.178 41.318C234.178 40.5153 234.328 39.8387 234.626 39.288C234.934 38.728 235.345 38.3033 235.858 38.014C236.372 37.7247 236.946 37.58 237.58 37.58C238.28 37.58 238.906 37.7387 239.456 38.056C240.016 38.364 240.455 38.798 240.772 39.358C241.09 39.918 241.248 40.5713 241.248 41.318C241.248 42.0553 241.09 42.7087 240.772 43.278C240.455 43.838 240.016 44.2767 239.456 44.594C238.906 44.9113 238.28 45.07 237.58 45.07ZM233.786 45V34.612H234.78V39.82L234.64 41.304L234.738 42.788V45H233.786ZM237.51 44.188C238.033 44.188 238.5 44.0713 238.91 43.838C239.321 43.5953 239.648 43.2593 239.89 42.83C240.133 42.3913 240.254 41.8873 240.254 41.318C240.254 40.7393 240.133 40.2353 239.89 39.806C239.648 39.3767 239.321 39.0453 238.91 38.812C238.5 38.5693 238.033 38.448 237.51 38.448C236.988 38.448 236.516 38.5693 236.096 38.812C235.686 39.0453 235.359 39.3767 235.116 39.806C234.883 40.2353 234.766 40.7393 234.766 41.318C234.766 41.8873 234.883 42.3913 235.116 42.83C235.359 43.2593 235.686 43.5953 236.096 43.838C236.516 44.0713 236.988 44.188 237.51 44.188ZM243.126 47.786C242.78 47.786 242.449 47.73 242.132 47.618C241.824 47.506 241.558 47.338 241.334 47.114L241.796 46.372C241.982 46.5493 242.183 46.6847 242.398 46.778C242.622 46.8807 242.869 46.932 243.14 46.932C243.466 46.932 243.746 46.8387 243.98 46.652C244.222 46.4747 244.451 46.1573 244.666 45.7L245.142 44.622L245.254 44.468L248.278 37.65H249.258L245.576 45.882C245.37 46.358 245.142 46.736 244.89 47.016C244.647 47.296 244.381 47.492 244.092 47.604C243.802 47.7253 243.48 47.786 243.126 47.786ZM245.086 45.21L241.698 37.65H242.734L245.73 44.398L245.086 45.21Z" fill="#7416EC"/>
<defs>
<filter id="filter0_d_5_100" x="0" y="30" width="143.391" height="131.167" filterUnits="userSpaceOnUse" color-interpolation-filters="sRGB">
<feFlood flood-opacity="0" result="BackgroundImageFix"/>
<feColorMatrix in="SourceAlpha" type="matrix" values="0 0 0 0 0 0 0 0 0 0 0 0 0 0 0 0 0 0 127 0" result="hardAlpha"/>
<feOffset dy="23"/>
<feGaussianBlur stdDeviation="15"/>
<feComposite in2="hardAlpha" operator="out"/>
<feColorMatrix type="matrix" values="0 0 0 0 0.000349164 0 0 0 0 0.520168 0 0 0 0 1 0 0 0 0.19 0"/>
<feBlend mode="normal" in2="BackgroundImageFix" result="effect1_dropShadow_5_100"/>
<feBlend mode="normal" in="SourceGraphic" in2="effect1_dropShadow_5_100" result="shape"/>
</filter>
<filter id="filter1_d_5_100" x="152" y="52" width="117.612" height="109.167" filterUnits="userSpaceOnUse" color-interpolation-filters="sRGB">
<feFlood flood-opacity="0" result="BackgroundImageFix"/>
<feColorMatrix in="SourceAlpha" type="matrix" values="0 0 0 0 0 0 0 0 0 0 0 0 0 0 0 0 0 0 127 0" result="hardAlpha"/>
<feOffset dy="23"/>
<feGaussianBlur stdDeviation="15"/>
<feComposite in2="hardAlpha" operator="out"/>
<feColorMatrix type="matrix" values="0 0 0 0 0.000349164 0 0 0 0 0.520168 0 0 0 0 1 0 0 0 0.19 0"/>
<feBlend mode="normal" in2="BackgroundImageFix" result="effect1_dropShadow_5_100"/>
<feBlend mode="normal" in="SourceGraphic" in2="effect1_dropShadow_5_100" result="shape"/>
</filter>
<radialGradient id="paint0_radial_5_100" cx="0" cy="0" r="1" gradientUnits="userSpaceOnUse" gradientTransform="translate(17.3182 65.6844) rotate(-14.0807) scale(92.399 89.4861)">
<stop offset="0.0985385" stop-color="#7416EC"/>
<stop offset="0.32434" stop-color="#8C3EE0"/>
<stop offset="0.58308" stop-color="#7B29BC" stop-opacity="0.5"/>
<stop offset="0.846646" stop-color="#0047FC" stop-opacity="0.812476"/>
<stop offset="1" stop-color="#0085FF"/>
</radialGradient>
<radialGradient id="paint1_radial_5_100" cx="0" cy="0" r="1" gradientUnits="userSpaceOnUse" gradientTransform="translate(54.5832 38.6033) rotate(53.1301) scale(85.5068 95.7639)">
<stop stop-color="#0AF3F4"/>
<stop offset="1" stop-color="#0AF3F4" stop-opacity="0"/>
</radialGradient>
<radialGradient id="paint2_radial_5_100" cx="0" cy="0" r="1" gradientUnits="userSpaceOnUse" gradientTransform="translate(50.8423 37.2386) rotate(53.1301) scale(85.5068 95.7639)">
<stop stop-color="#0AF3F4"/>
<stop offset="1" stop-color="#0AF3F4" stop-opacity="0"/>
</radialGradient>
<radialGradient id="paint3_radial_5_100" cx="0" cy="0" r="1" gradientUnits="userSpaceOnUse" gradientTransform="translate(248.373 78.8171) rotate(-165.919) scale(63.8353 61.8229)">
<stop offset="0.0985385" stop-color="#7416EC"/>
<stop offset="0.32434" stop-color="#8C3EE0"/>
<stop offset="0.58308" stop-color="#7B29BC" stop-opacity="0.5"/>
<stop offset="0.846646" stop-color="#0047FC" stop-opacity="0.812476"/>
<stop offset="1" stop-color="#0085FF"/>
</radialGradient>
<radialGradient id="paint4_radial_5_100" cx="0" cy="0" r="1" gradientUnits="userSpaceOnUse" gradientTransform="translate(222.628 60.1077) rotate(126.87) scale(59.0737 66.16)">
<stop stop-color="#0AF3F4"/>
<stop offset="1" stop-color="#0AF3F4" stop-opacity="0"/>
</radialGradient>
<radialGradient id="paint5_radial_5_100" cx="0" cy="0" r="1" gradientUnits="userSpaceOnUse" gradientTransform="translate(225.213 59.1649) rotate(126.87) scale(59.0737 66.16)">
<stop stop-color="#0AF3F4"/>
<stop offset="1" stop-color="#0AF3F4" stop-opacity="0"/>
</radialGradient>
</defs>
</svg>
